<?xml version="1.0" encoding="UTF-8"?>
<svg version="1.1" xmlns="http://www.w3.org/2000/svg" width="512" height="512">
<path d="M0 0 C1.47141886 -0.00514837 2.94283153 -0.01243654 4.41423035 -0.02168274 C8.38596249 -0.04009998 12.35701783 -0.02731551 16.32872128 -0.00759244 C20.50878143 0.00889767 24.68880214 -0.00003415 28.86888123 -0.00511169 C35.89381594 -0.00962466 42.91848374 0.00617883 49.94335938 0.03417969 C58.02314122 0.06614058 66.10243957 0.06624722 74.18225533 0.04896492 C81.99696532 0.03299612 89.81150097 0.03990502 97.62620354 0.05690193 C100.93080322 0.06370997 104.2352605 0.0628049 107.53985786 0.05535698 C140.61006521 -0.00339824 140.61006521 -0.00339824 154.18139648 4.63110352 C155.02108475 4.90596588 155.86077301 5.18082825 156.72590637 5.46401978 C169.80822908 10.14608696 185.37877059 18.92716468 193.18139648 30.63110352 C196.2643328 29.60345808 197.42555484 28.47011006 199.63842773 26.20532227 C214.96241442 10.57097636 236.0507595 0.84198971 258.0871582 0.35694885 C260.76226495 0.33607296 263.43602943 0.32558675 266.11108398 0.32470703 C267.5938559 0.31707097 269.0766239 0.30864103 270.55938721 0.29948425 C274.55934678 0.27768386 278.55923 0.26876082 282.55924225 0.26365781 C285.06365344 0.25999916 287.56804506 0.25375161 290.07244873 0.24665642 C298.82426827 0.22221903 307.57602895 0.20912095 316.32788086 0.20556641 C324.46348366 0.20192831 332.59870993 0.17199878 340.73419762 0.13016182 C347.74087999 0.09540297 354.74743775 0.08001706 361.7542057 0.07932037 C365.92961815 0.07852993 370.10464557 0.06989758 374.27996826 0.04132271 C378.2069414 0.01504306 382.13321271 0.01299118 386.06023407 0.02897835 C387.49445891 0.0307846 388.9287251 0.02417695 390.36286163 0.00815964 C400.28507719 -0.0958344 408.07728779 1.00141518 415.61889648 7.84204102 C416.13452148 8.55618164 416.65014648 9.27032227 417.18139648 10.00610352 C417.98577148 11.06958008 417.98577148 11.06958008 418.80639648 12.15454102 C422.52116996 18.8453546 422.45278739 25.34279591 422.37670898 32.81469727 C422.37246414 34.39795555 422.37246414 34.39795555 422.36813354 36.01319885 C422.35699064 39.36511856 422.33189672 42.71676535 422.30639648 46.06860352 C422.29635908 48.3491986 422.28723456 50.6297979 422.27905273 52.91040039 C422.25707056 58.48407232 422.22258122 64.05754174 422.18139648 69.63110352 C417.23139648 69.63110352 412.28139648 69.63110352 407.18139648 69.63110352 C407.27420898 71.88954102 407.27420898 71.88954102 407.36889648 74.19360352 C407.32502519 81.99172619 404.29876702 86.85839472 399.48608398 92.73657227 C391.88002733 98.98900867 383.82759986 99.2350787 374.31030273 99.19750977 C372.99279526 99.20370834 371.67528778 99.20990692 370.31785583 99.21629333 C367.54163996 99.22664414 364.76593834 99.2222143 361.98974609 99.20751953 C358.45810659 99.1903421 354.92809589 99.21383873 351.39663792 99.24900913 C347.99276805 99.27643931 344.58927751 99.26623689 341.18530273 99.26000977 C339.93084854 99.27326797 338.67639435 99.28652618 337.38392639 99.30018616 C328.78119359 99.20969307 321.87009759 97.76603079 315.27760315 91.9521637 C310.20152937 86.75246184 308.03199858 80.2571984 307.99389648 73.06860352 C308.05577148 71.93422852 308.11764648 70.79985352 308.18139648 69.63110352 C303.56139648 69.63110352 298.94139648 69.63110352 294.18139648 69.63110352 C294.18139648 62.04110352 294.18139648 54.45110352 294.18139648 46.63110352 C289.41577253 46.70572722 284.65181766 46.78909991 279.88696289 46.89355469 C278.27149597 46.92648079 276.65592293 46.95460932 275.0402832 46.97753906 C259.04172264 47.2106241 244.22801973 48.88172701 231.93139648 60.25610352 C220.96109862 72.12745253 217.70869694 85.8629518 217.78266907 101.67243958 C217.77602224 102.81060755 217.76937541 103.94877552 217.76252717 105.12143344 C217.7440304 108.89533963 217.7464935 112.66892506 217.74902344 116.44287109 C217.74164787 119.16397889 217.72979878 121.88506302 217.71813965 124.6061554 C217.69544685 130.44399924 217.68348474 136.28178379 217.67901039 142.11966896 C217.67252559 150.5600398 217.64954753 159.00030387 217.6226671 167.44063147 C217.57948771 181.137652 217.54947056 194.83466802 217.52783203 208.53173828 C217.50679573 221.82961242 217.4794976 235.12744963 217.44384766 248.42529297 C217.44164883 249.24628834 217.43945001 250.06728372 217.43718455 250.91315774 C217.42611424 255.03224344 217.41492155 259.15132879 217.40366805 263.27041399 C217.31060835 297.39061295 217.23895241 331.51082627 217.18139648 365.63110352 C217.95612305 365.93016602 218.73084961 366.22922852 219.52905273 366.53735352 C226.57883095 369.44447855 229.85032894 375.05329925 233.18139648 381.63110352 C234.48687176 385.45719894 234.31474154 389.34416243 234.29492188 393.3371582 C234.2950679 394.10827438 234.29521393 394.87939056 234.29536438 395.6738739 C234.29466897 398.21693761 234.28689397 400.75992764 234.27905273 403.30297852 C234.27718723 405.06846069 234.27576395 406.83394339 234.27476501 408.59942627 C234.27095023 413.24201898 234.2611288 417.88458031 234.25006104 422.52716064 C234.23982459 427.26623103 234.23526261 432.0053065 234.23022461 436.74438477 C234.21950561 446.03997145 234.20244165 455.33553487 234.18139648 464.63110352 C235.19261755 464.62649455 236.20383862 464.62188559 237.24570274 464.61713696 C261.86749928 464.50606726 286.48926328 464.42394066 311.11125755 464.37204266 C323.01835416 464.34627713 334.92528511 464.31115793 346.83227539 464.25390625 C357.21218021 464.20402102 367.59196505 464.1718005 377.97198641 464.16066104 C383.46657646 464.15415103 388.9608233 464.13888462 394.45530319 464.10245323 C399.63127407 464.0684131 404.80676167 464.05806684 409.98283386 464.06556511 C411.87825271 464.06419415 413.7736884 464.05430969 415.66901016 464.03507614 C436.06116125 463.83835989 436.06116125 463.83835989 444.09815025 471.44529247 C450.00336055 477.7330502 450.64470893 483.74341903 450.48608398 492.18579102 C449.79079446 500.04791107 446.1338563 504.18069055 440.27905273 509.18579102 C435.40121463 512.54668505 430.91884181 512.92007485 425.12340069 512.88837242 C424.31298562 512.8918785 423.50257055 512.89538457 422.66759744 512.89899689 C419.94073989 512.90833146 417.21409495 512.90338227 414.48722839 512.89852905 C412.51695831 512.90226427 410.54668971 512.90686528 408.57642347 512.9122597 C403.15319592 512.92452092 397.73002992 512.92422556 392.30679166 512.92187095 C386.46139976 512.92146357 380.6160278 512.93249435 374.77064514 512.94198608 C363.31510042 512.95861408 351.85957628 512.96409644 340.40402051 512.96521084 C331.09451721 512.96616045 321.78502073 512.97026635 312.47551918 512.97661209 C309.79653417 512.97840716 307.11754915 512.98018679 304.43856412 512.98196185 C303.77257445 512.98240394 303.10658477 512.98284604 302.42041359 512.98330153 C283.68522778 512.99561134 264.95004428 513.00350252 246.21485424 513.00261497 C245.50837886 513.00258382 244.80190349 513.00255266 244.07401977 513.00252056 C240.49324704 513.00235434 236.91247432 513.00215626 233.3317016 513.00195114 C232.26495578 513.00189131 232.26495578 513.00189131 231.17665953 513.00183026 C229.73851256 513.00174939 228.30036558 513.00166579 226.86221861 513.00157948 C204.486082 513.00035392 182.11000599 513.01536747 159.73388672 513.04272461 C134.59875297 513.07344221 109.46365904 513.0906573 84.32850534 513.08879817 C71.01833079 513.08805683 57.70822038 513.0936572 44.39806175 513.11515427 C33.06623791 513.13333853 21.7345134 513.13773605 10.40268131 513.12413542 C4.61944996 513.11759193 -1.16359067 513.11753847 -6.94680405 513.13484192 C-12.23996664 513.15051646 -17.53278639 513.14776648 -22.82594033 513.13027366 C-24.74180361 513.12719136 -26.65769211 513.13088215 -28.57352564 513.14199381 C-31.17712747 513.15609548 -33.77952351 513.14554427 -36.3830843 513.12888145 C-37.12751607 513.13881781 -37.87194785 513.14875417 -38.63893816 513.15899163 C-45.07914526 513.07180688 -50.21267656 510.91469456 -55.06079102 506.66625977 C-55.59961914 506.0152832 -56.13844727 505.36430664 -56.69360352 504.69360352 C-57.24790039 504.04520508 -57.80219727 503.39680664 -58.37329102 502.72875977 C-62.85018182 496.23121825 -62.50079857 489.25614446 -61.81860352 481.63110352 C-60.19214172 475.44665299 -56.14686116 471.03275953 -50.81860352 467.63110352 C-45.58345374 465.00240247 -41.33811513 464.20185325 -35.4599762 464.27033997 C-34.64545186 464.26777669 -33.83092751 464.26521342 -32.99172062 464.26257247 C-30.27699043 464.2576521 -27.56282302 464.2740984 -24.84814453 464.29052734 C-22.89639804 464.29137399 -20.9446506 464.29089773 -18.99290466 464.28919983 C-13.70414764 464.28833994 -8.41559519 464.30596486 -3.12688565 464.3269217 C2.4037667 464.34568941 7.93442387 464.34743902 13.46510315 464.35099792 C23.93387514 464.36031809 34.40255302 464.38493157 44.87128359 464.41504639 C56.79139935 464.44859121 68.71151962 464.46507663 80.63167083 464.4801327 C105.1482982 464.51148109 129.66484207 464.56424112 154.18139648 464.63110352 C154.17251404 463.66359161 154.16363159 462.69607971 154.15447998 461.69924927 C154.07313741 452.54898913 154.01330843 443.39880305 153.9741478 434.24826241 C153.95333753 429.54466725 153.92514082 424.84136569 153.87963867 420.13793945 C153.8359455 415.59268207 153.81221012 411.0477058 153.80188751 406.50225449 C153.79453804 404.77441869 153.78018684 403.04659701 153.75847626 401.31888199 C153.62948121 390.62102392 153.79638165 381.11480691 160.55639648 372.25610352 C163.25472486 369.55777514 165.87977014 367.53870985 169.18139648 365.63110352 C169.84139648 365.63110352 170.50139648 365.63110352 171.18139648 365.63110352 C171.12245859 330.69156686 171.0478662 295.75210194 170.9524102 260.8126462 C170.94114264 256.68352876 170.93000409 252.55441098 170.91894531 248.42529297 C170.91563979 247.19229351 170.91563979 247.19229351 170.91226748 245.93438496 C170.87693825 232.6415322 170.85204946 219.3486795 170.83104946 206.05579726 C170.80925251 192.40627725 170.77616524 178.75681793 170.73269492 165.10734957 C170.70624517 156.69144633 170.6885007 148.27561863 170.68205044 139.85967591 C170.67677606 134.08098834 170.66049069 128.30239567 170.63573083 122.52375904 C170.6217855 119.19454788 170.61415648 115.86565005 170.61638832 112.5363884 C170.61804905 108.91487575 170.60127288 105.29388093 170.5801239 101.67243958 C170.58497148 100.63640478 170.58981905 99.60036999 170.59481353 98.53294021 C170.44666024 83.06514286 166.17924794 71.20002601 155.64233398 59.92797852 C145.83003901 50.76983654 134.07165261 47.61346058 120.93920898 47.31469727 C120.1708371 47.29391617 119.40246521 47.27313507 118.61080933 47.25172424 C116.17608881 47.18676883 113.74126801 47.12759714 111.30639648 47.06860352 C109.64753229 47.02536682 107.98867793 46.98175095 106.32983398 46.93774414 C102.28045571 46.83043562 98.23099262 46.73096239 94.18139648 46.63110352 C94.18139648 54.22110352 94.18139648 61.81110352 94.18139648 69.63110352 C89.56139648 69.63110352 84.94139648 69.63110352 80.18139648 69.63110352 C80.24327148 70.76547852 80.30514648 71.89985352 80.36889648 73.06860352 C80.33079439 80.2571984 78.1612636 86.75246184 73.08518982 91.9521637 C65.35000971 98.77375597 57.11195918 99.36500624 47.17749023 99.26000977 C45.85902603 99.26242172 44.54056183 99.26483368 43.18214417 99.26731873 C40.40756912 99.27015824 37.63380959 99.25565842 34.859375 99.22802734 C31.32668729 99.19391231 27.79545211 99.19999054 24.26269436 99.21868992 C20.85915241 99.23187655 17.4560221 99.21352262 14.05249023 99.19750977 C12.1677726 99.20494957 12.1677726 99.20494957 10.24497986 99.21253967 C1.5475047 99.09663034 -6.36464619 97.86749759 -12.69360352 91.38110352 C-18.7582773 84.75358297 -19.18183951 78.34876738 -18.81860352 69.63110352 C-23.76860352 69.63110352 -28.71860352 69.63110352 -33.81860352 69.63110352 C-33.91790919 62.8175882 -33.99027938 56.00449961 -34.03833008 49.19042969 C-34.05837352 46.87525081 -34.08561577 44.5601221 -34.12036133 42.24511719 C-34.16919893 38.90620501 -34.19164576 35.56796553 -34.20922852 32.22875977 C-34.22987366 31.20339615 -34.2505188 30.17803253 -34.27178955 29.12159729 C-34.27432706 20.88786041 -32.16698514 15.22274599 -27.69360352 8.38110352 C-19.50328971 0.54689031 -10.91500242 -0.09775751 0 0 Z " fill="#607781" transform="translate(61.818603515625,-0.631103515625)"/>
<path d="M0 0 C2.19928402 0.0084877 4.39594358 -0.02027457 6.5949707 -0.05200195 C16.45922985 -0.10074082 24.76232223 1.14914248 33.21411133 6.57104492 C40.26259609 14.11128444 43.06559399 20.98665638 43.01513672 31.15209961 C43.01528275 31.92321579 43.01542877 32.69433197 43.01557922 33.48881531 C43.01488381 36.03187902 43.00710882 38.57486904 42.99926758 41.11791992 C42.99740208 42.8834021 42.9959788 44.6488848 42.99497986 46.41436768 C42.99116508 51.05696039 42.98134365 55.69952172 42.97027588 60.34210205 C42.96003943 65.08117244 42.95547745 69.82024791 42.95043945 74.55932617 C42.93972046 83.85491286 42.92265649 93.15047628 42.90161133 102.44604492 C43.91283239 102.44143596 44.92405346 102.43682699 45.96591759 102.43207836 C70.58771413 102.32100867 95.20947812 102.23888207 119.8314724 102.18698406 C131.738569 102.16121853 143.64549996 102.12609933 155.55249023 102.06884766 C165.93239505 102.01896243 176.31217989 101.98674191 186.69220126 101.97560245 C192.1867913 101.96909243 197.68103814 101.95382603 203.17551804 101.91739464 C208.35148892 101.88335451 213.52697652 101.87300825 218.70304871 101.88050652 C220.59846756 101.87913556 222.49390325 101.86925109 224.38922501 101.85001755 C244.78137609 101.65330129 244.78137609 101.65330129 252.8183651 109.26023388 C258.72357539 115.54799161 259.36492377 121.55836044 259.20629883 130.00073242 C258.5110093 137.86285247 254.85407114 141.99563196 248.99926758 147.00073242 C244.12142947 150.36162646 239.63905666 150.73501626 233.84361553 150.70331383 C233.03320046 150.7068199 232.22278539 150.71032598 231.38781229 150.7139383 C228.66095474 150.72327286 225.93430979 150.71832367 223.20744324 150.71347046 C221.23717315 150.71720568 219.26690455 150.72180669 217.29663831 150.7272011 C211.87341076 150.73946233 206.45024476 150.73916696 201.02700651 150.73681235 C195.18161461 150.73640498 189.33624265 150.74743576 183.49085999 150.75692749 C172.03531527 150.77355549 160.57979113 150.77903785 149.12423535 150.78015225 C139.81473206 150.78110185 130.50523557 150.78520776 121.19573402 150.7915535 C118.51674901 150.79334856 115.83776399 150.79512819 113.15877897 150.79690325 C112.49278929 150.79734535 111.82679962 150.79778745 111.14062844 150.79824294 C92.40544262 150.81055275 73.67025912 150.81844392 54.93506908 150.81755638 C54.22859371 150.81752522 53.52211833 150.81749407 52.79423461 150.81746196 C49.21346189 150.81729575 45.63268916 150.81709767 42.05191644 150.81689255 C40.98517062 150.81683271 40.98517062 150.81683271 39.89687437 150.81677167 C38.4587274 150.8166908 37.02058043 150.8166072 35.58243346 150.81652089 C13.20629684 150.81529533 -9.16977917 150.83030888 -31.54589844 150.85766602 C-56.68103219 150.88838362 -81.81612611 150.90559871 -106.95127982 150.90373957 C-120.26145436 150.90299824 -133.57156478 150.90859861 -146.8817234 150.93009567 C-158.21354724 150.94827993 -169.54527175 150.95267745 -180.87710384 150.93907683 C-186.6603352 150.93253334 -192.44337583 150.93247987 -198.2265892 150.94978333 C-203.51975179 150.96545787 -208.81257155 150.96270788 -214.10572549 150.94521506 C-216.02158876 150.94213277 -217.93747727 150.94582356 -219.8533108 150.95693521 C-222.45691263 150.97103689 -225.05930867 150.96048567 -227.66286945 150.94382286 C-228.77951711 150.9587274 -228.77951711 150.9587274 -229.91872332 150.97393304 C-236.35893041 150.88674828 -241.49246172 148.72963596 -246.34057617 144.48120117 C-247.14881836 143.50473633 -247.14881836 143.50473633 -247.97338867 142.50854492 C-248.52768555 141.86014648 -249.08198242 141.21174805 -249.65307617 140.54370117 C-254.12996697 134.04615966 -253.78058373 127.07108587 -253.09838867 119.44604492 C-251.47192688 113.2615944 -247.42664632 108.84770093 -242.09838867 105.44604492 C-236.86323889 102.81734388 -232.61790029 102.01679466 -226.73976135 102.08528137 C-225.92523701 102.0827181 -225.11071267 102.08015482 -224.27150577 102.07751387 C-221.55677559 102.07259351 -218.84260818 102.0890398 -216.12792969 102.10546875 C-214.1761832 102.1063154 -212.22443575 102.10583914 -210.27268982 102.10414124 C-204.98393279 102.10328134 -199.69538034 102.12090627 -194.40667081 102.14186311 C-188.87601846 102.16063082 -183.34536129 102.16238043 -177.81468201 102.16593933 C-167.34591002 102.1752595 -156.87723214 102.19987297 -146.40850157 102.2299878 C-134.48838581 102.26353262 -122.56826554 102.28001804 -110.64811432 102.29507411 C-86.13148696 102.3264225 -61.61494309 102.37918253 -37.09838867 102.44604492 C-37.10727112 101.47853302 -37.11615356 100.51102112 -37.12530518 99.51419067 C-37.20664775 90.36393053 -37.26647673 81.21374445 -37.30563736 72.06320381 C-37.32644763 67.35960866 -37.35464433 62.65630709 -37.40014648 57.95288086 C-37.44383966 53.40762348 -37.46757504 48.8626472 -37.47789764 44.31719589 C-37.48524712 42.5893601 -37.49959831 40.86153842 -37.5213089 39.13382339 C-37.65030395 28.43596533 -37.4834035 18.92974832 -30.72338867 10.07104492 C-21.63706763 0.98472388 -12.16633519 -0.07149526 0 0 Z " fill="#BBDE95" transform="translate(253.098388671875,361.553955078125)"/>
<path d="M0 0 C1.95955029 -0.00082996 3.9191005 -0.00329414 5.87864685 -0.00730896 C9.97131482 -0.01015693 14.06343248 0.00443746 18.15600586 0.03198242 C23.38350069 0.06608584 28.61001385 0.06002975 33.83755589 0.04131985 C37.87924788 0.03071726 41.92071414 0.03971687 45.96238518 0.05470467 C47.88916286 0.0598615 49.81596436 0.05943526 51.74273872 0.05315971 C54.44171429 0.047667 57.13931608 0.06821025 59.83813477 0.09545898 C60.62228256 0.08893311 61.40643036 0.08240723 62.21434021 0.07568359 C69.26979755 0.1959022 75.14947953 2.40213098 80.62109375 6.87890625 C85.30897726 12.60854165 89.00411839 17.88232175 88.98461914 25.4675293 C88.98454361 26.44831955 88.98446808 27.4291098 88.98439026 28.43962097 C88.97922897 29.4959523 88.97406769 30.55228363 88.96875 31.640625 C88.96662758 33.26566704 88.96662758 33.26566704 88.96446228 34.92353821 C88.95885934 38.3878555 88.94630633 41.85210845 88.93359375 45.31640625 C88.92857913 47.66341053 88.92401616 50.01041581 88.91992188 52.35742188 C88.90888895 58.11460817 88.89162233 63.8717463 88.87109375 69.62890625 C84.25109375 69.62890625 79.63109375 69.62890625 74.87109375 69.62890625 C74.96390625 71.33046875 74.96390625 71.33046875 75.05859375 73.06640625 C75.02049166 80.25500113 72.85096086 86.75026458 67.77488708 91.94996643 C60.03970697 98.7715587 51.80165645 99.36280897 41.8671875 99.2578125 C40.5487233 99.26022446 39.23025909 99.26263641 37.87184143 99.26512146 C35.09726639 99.26796097 32.32350686 99.25346115 29.54907227 99.22583008 C26.01638456 99.19171505 22.48514937 99.19779328 18.95239162 99.21649265 C15.54884967 99.22967929 12.14571937 99.21132536 8.7421875 99.1953125 C7.48570908 99.20027237 6.22923065 99.20523224 4.93467712 99.21034241 C-3.76279804 99.09443307 -11.67494892 97.86530033 -18.00390625 91.37890625 C-24.06858004 84.75138571 -24.49214224 78.34657011 -24.12890625 69.62890625 C-29.07890625 69.62890625 -34.02890625 69.62890625 -39.12890625 69.62890625 C-39.22821193 62.81539094 -39.30058211 56.00230234 -39.34863281 49.18823242 C-39.36867625 46.87305354 -39.3959185 44.55792483 -39.43066406 42.24291992 C-39.47950167 38.90400774 -39.5019485 35.56576826 -39.51953125 32.2265625 C-39.54017639 31.20119888 -39.56082153 30.17583527 -39.58209229 29.11940002 C-39.58462979 20.88566314 -37.47728787 15.22054873 -33.00390625 8.37890625 C-23.33770268 -0.8670276 -12.57465097 -0.09660667 0 0 Z " fill="#B0E3F8" transform="translate(67.12890625,-0.62890625)"/>
<path d="M0 0 C0.85288101 -0.00832352 1.70576202 -0.01664703 2.58448792 -0.02522278 C5.39328634 -0.04924134 8.20185208 -0.05808548 11.01074219 -0.06469727 C12.97361314 -0.07367068 14.93648342 -0.08279265 16.89935303 -0.09205627 C21.01153217 -0.10852734 25.12363008 -0.1162428 29.23583984 -0.11914062 C34.48578934 -0.12451853 39.73496728 -0.16218247 44.98469925 -0.20788479 C49.03925308 -0.23773961 53.09362312 -0.24486603 57.14827728 -0.24586678 C59.08264444 -0.25005332 61.01701293 -0.26242421 62.95127106 -0.28338432 C83.91454667 -0.49244633 83.91454667 -0.49244633 92.74511719 7.51733398 C93.26074219 8.23147461 93.77636719 8.94561523 94.30761719 9.68139648 C94.84386719 10.39038086 95.38011719 11.09936523 95.93261719 11.82983398 C99.64739066 18.52064757 99.57900809 25.01808888 99.50292969 32.48999023 C99.50009979 33.54549576 99.4972699 34.60100128 99.49435425 35.68849182 C99.48321134 39.04041153 99.45811743 42.39205832 99.43261719 45.74389648 C99.42257978 48.02449157 99.41345526 50.30509086 99.40527344 52.58569336 C99.38329126 58.15936529 99.34880192 63.7328347 99.30761719 69.30639648 C94.35761719 69.30639648 89.40761719 69.30639648 84.30761719 69.30639648 C84.36949219 70.81202148 84.43136719 72.31764648 84.49511719 73.86889648 C84.45124589 81.66701915 81.42498773 86.53368769 76.61230469 92.41186523 C69.00624803 98.66430164 60.95382057 98.91037166 51.43652344 98.87280273 C50.11901596 98.87900131 48.80150848 98.88519989 47.44407654 98.8915863 C44.66786067 98.90193711 41.89215904 98.89750727 39.1159668 98.8828125 C35.58432729 98.86563507 32.05431659 98.8891317 28.52285862 98.9243021 C25.11898875 98.95173228 21.71549821 98.94152986 18.31152344 98.93530273 C17.05706924 98.94856094 15.80261505 98.96181915 14.51014709 98.97547913 C5.9074143 98.88498604 -1.00368171 97.44132376 -7.59617615 91.62745667 C-12.67224993 86.42775481 -14.84178072 79.93249137 -14.87988281 72.74389648 C-14.78707031 71.04233398 -14.78707031 71.04233398 -14.69238281 69.30639648 C-19.31238281 69.30639648 -23.93238281 69.30639648 -28.69238281 69.30639648 C-28.79168849 62.49288117 -28.86405867 55.67979258 -28.91210938 48.86572266 C-28.93215281 46.55054378 -28.95939506 44.23541507 -28.99414062 41.92041016 C-29.04297823 38.58149797 -29.06542506 35.2432585 -29.08300781 31.90405273 C-29.10365295 30.87868912 -29.1242981 29.8533255 -29.14556885 28.79689026 C-29.14803615 20.79095802 -27.56333269 14.61903096 -22.25488281 8.49389648 C-21.40925781 7.77202148 -20.56363281 7.05014648 -19.69238281 6.30639648 C-18.48582031 5.22358398 -18.48582031 5.22358398 -17.25488281 4.11889648 C-11.79948701 0.26020189 -6.43917939 0.00538403 0 0 Z " fill="#B0E3F8" transform="translate(384.6923828125,-0.306396484375)"/>
<path d="M0 0 C2.19928402 0.0084877 4.39594358 -0.02027457 6.5949707 -0.05200195 C16.45922985 -0.10074082 24.76232223 1.14914248 33.21411133 6.57104492 C40.26257685 14.11126385 43.06553698 20.98679089 43.01513672 31.15209961 C43.01525725 31.93564442 43.01537779 32.71918922 43.01550198 33.52647781 C43.01475696 36.05698762 43.00714748 38.58742333 42.99926758 41.11791992 C42.99779688 42.68253545 42.99677696 44.24715146 42.99621582 45.81176758 C42.99097771 51.60653421 42.97701648 57.4012903 42.96411133 63.19604492 C42.94348633 76.14854492 42.92286133 89.10104492 42.90161133 102.44604492 C16.50161133 102.44604492 -9.89838867 102.44604492 -37.09838867 102.44604492 C-37.18088867 89.61729492 -37.26338867 76.78854492 -37.34838867 63.57104492 C-37.38480469 59.53772949 -37.4212207 55.50441406 -37.45874023 51.34887695 C-37.47680664 46.37939453 -37.47680664 46.37939453 -37.48016357 44.04440308 C-37.48625929 42.43229745 -37.50022987 40.82020873 -37.52069092 39.20822144 C-37.64985936 28.48503185 -37.50052121 18.95218033 -30.72338867 10.07104492 C-21.63706763 0.98472388 -12.16633519 -0.07149526 0 0 Z " fill="#B0E3F8" transform="translate(253.098388671875,361.553955078125)"/>
<path d="M0 0 C6.7219625 -0.09978933 13.4434822 -0.17189977 20.16601562 -0.21972656 C22.44701664 -0.23969015 24.72796749 -0.26687079 27.00878906 -0.30175781 C51.51112941 -0.66682336 51.51112941 -0.66682336 63 4 C63.69222656 4.27199219 64.38445312 4.54398438 65.09765625 4.82421875 C78.124749 10.45357331 89.17886029 20.73681103 94.78394777 33.83146566 C97.19663566 40.29483612 97.41526247 46.20435638 97.36076355 53.05384827 C97.36332682 54.24168472 97.3658901 55.42952118 97.36853105 56.65335268 C97.37259968 59.92820799 97.36329462 63.20270197 97.34819686 66.47751462 C97.33518735 70.01726626 97.33962942 73.55700241 97.34190369 77.09677124 C97.34347333 83.22228503 97.33409657 89.34770262 97.31719017 95.47319221 C97.29276266 104.32950063 97.28499107 113.18576274 97.2812262 122.0421012 C97.27466759 136.41245253 97.25472248 150.78275264 97.22631836 165.15307617 C97.19876249 179.10880274 97.17753639 193.06451537 97.16479492 207.02026367 C97.16400675 207.88114088 97.16321858 208.74201809 97.16240653 209.62898249 C97.15849129 213.94794329 97.15470019 218.26690418 97.15097082 222.58586514 C97.1198933 258.39061291 97.06707362 294.19530246 97 330 C96.05898437 330.04898437 95.11796875 330.09796875 94.1484375 330.1484375 C92.28058594 330.26058594 92.28058594 330.26058594 90.375 330.375 C89.14523438 330.44460938 87.91546875 330.51421875 86.6484375 330.5859375 C83.16346145 330.9814487 80.26950399 331.76261849 77 333 C76.99902319 332.42092874 76.99804638 331.84185748 76.99703997 331.2452386 C76.93871125 296.89062343 76.86487169 262.53607898 76.77101372 228.18154268 C76.75974616 224.05242524 76.74860761 219.92330746 76.73754883 215.79418945 C76.73534514 214.97218981 76.73314146 214.15019017 76.730871 213.30328145 C76.69554177 200.01042869 76.67065297 186.71757598 76.64965298 173.42469374 C76.62785603 159.77517373 76.59476875 146.12571441 76.55129844 132.47624606 C76.52484869 124.06034281 76.50710422 115.64451512 76.50065396 107.22857239 C76.49537958 101.44988483 76.47909421 95.67129216 76.45433434 89.89265553 C76.44038902 86.56344436 76.43276 83.23454654 76.43499184 79.90528488 C76.43665256 76.28377223 76.4198764 72.66277742 76.39872742 69.04133606 C76.40357499 68.00530127 76.40842257 66.96926648 76.41341704 65.90183669 C76.26526376 50.43403935 71.99785146 38.56892249 61.4609375 27.296875 C51.64864252 18.13873302 39.89025612 14.98235707 26.7578125 14.68359375 C25.60525467 14.6524221 25.60525467 14.6524221 24.42941284 14.62062073 C21.99469233 14.55566531 19.55987153 14.49649362 17.125 14.4375 C15.4661358 14.3942633 13.80728144 14.35064743 12.1484375 14.30664062 C8.09905896 14.20003997 4.04958037 14.0986233 0 14 C0 9.38 0 4.76 0 0 Z " fill="#475959" transform="translate(156,32)"/>
<path d="M0 0 C0.92761139 -0.00043808 1.85522278 -0.00087616 2.8109436 -0.00132751 C5.85733563 0.00075175 8.90316777 0.02404219 11.94946289 0.04760742 C14.06937866 0.05320644 16.18929832 0.05747509 18.30921936 0.06047058 C23.87414366 0.07189524 29.43883106 0.10134207 35.00366211 0.13458252 C40.68803707 0.16533466 46.3724505 0.17898691 52.05688477 0.1940918 C63.19956667 0.22621395 74.34207316 0.2773816 85.48461914 0.34057617 C83.52287413 1.33062285 81.57618683 2.30146528 79.55493164 3.16479492 C73.42849938 5.88355301 69.25681988 9.63891456 66.34008789 15.73120117 C64.20903704 22.23139282 64.81880331 29.42029958 67.59008789 35.63354492 C71.03137406 42.2005408 75.93382303 44.40271914 82.48461914 47.34057617 C82.48461914 47.67057617 82.48461914 48.00057617 82.48461914 48.34057617 C70.49715752 48.43337988 58.5097818 48.50439401 46.52203369 48.54782486 C40.95523359 48.5686727 35.38867983 48.59693945 29.82202148 48.64233398 C24.44684436 48.68589124 19.07190375 48.70973436 13.69656372 48.72008514 C11.6488981 48.72745875 9.60124498 48.74185769 7.55368042 48.7634964 C4.67881605 48.79266146 1.80492087 48.79652667 -1.07006836 48.79467773 C-1.91092484 48.80905884 -2.75178131 48.82343994 -3.61811829 48.83825684 C-10.42246544 48.79110607 -15.61458018 46.88256701 -20.75756836 42.37573242 C-21.29639648 41.72475586 -21.83522461 41.0737793 -22.39038086 40.40307617 C-22.94467773 39.75467773 -23.49897461 39.1062793 -24.07006836 38.43823242 C-28.54695916 31.94069091 -28.19757592 24.96561712 -27.51538086 17.34057617 C-25.88891907 11.15612565 -21.8436385 6.74223218 -16.51538086 3.34057617 C-10.82617983 0.41346812 -6.34546493 -0.07929194 0 0 Z " fill="#93C8A4" transform="translate(27.515380859375,463.659423828125)"/>
<path d="M0 0 C1.55337248 0.01507027 3.10675906 0.02875454 4.66015625 0.04101562 C8.44045615 0.07384503 12.22007063 0.12549746 16 0.1875 C16 0.5175 16 0.8475 16 1.1875 C14.700625 1.39375 13.40125 1.6 12.0625 1.8125 C4.47631314 3.54205518 -1.03622426 7.34037514 -5.4375 13.75 C-9.02657479 19.4863845 -10.29858481 24.24651524 -10.31884766 31.00708008 C-10.32889328 31.77834229 -10.3389389 32.54960449 -10.34928894 33.34423828 C-10.38006606 35.88182868 -10.39714071 38.41931383 -10.4140625 40.95703125 C-10.43277856 42.72109377 -10.4523523 44.48514738 -10.4727478 46.24919128 C-10.52402873 50.88348126 -10.56367606 55.51780025 -10.60089111 60.15222168 C-10.64095609 64.88475701 -10.69203706 69.61717208 -10.7421875 74.34960938 C-10.83889904 83.62883008 -10.92230055 92.9081006 -11 102.1875 C-20.57 102.1875 -30.14 102.1875 -40 102.1875 C-40.09063041 92.05990043 -40.16390529 81.93257341 -40.20724869 71.80465889 C-40.22805896 67.10106374 -40.25625566 62.39776217 -40.30175781 57.69433594 C-40.34545098 53.14907856 -40.36918636 48.60410228 -40.37950897 44.05865097 C-40.38685845 42.33081517 -40.40120964 40.6029935 -40.42292023 38.87527847 C-40.55191527 28.17742041 -40.38501483 18.6712034 -33.625 9.8125 C-23.62686186 -0.18563814 -13.20030259 -0.22304443 0 0 Z " fill="#93D8E4" transform="translate(256,361.8125)"/>
<path d="M0 0 C1.95955029 -0.00082996 3.9191005 -0.00329414 5.87864685 -0.00730896 C9.97131482 -0.01015693 14.06343248 0.00443746 18.15600586 0.03198242 C23.38350069 0.06608584 28.61001385 0.06002975 33.83755589 0.04131985 C37.87924788 0.03071726 41.92071414 0.03971687 45.96238518 0.05470467 C47.88916286 0.0598615 49.81596436 0.05943526 51.74273872 0.05315971 C54.44171429 0.047667 57.13931608 0.06821025 59.83813477 0.09545898 C60.62228256 0.08893311 61.40643036 0.08240723 62.21434021 0.07568359 C69.41429854 0.19836437 75.31661388 2.45488083 80.80859375 7.12890625 C82.59204369 9.29066375 83.68879328 11.12645861 84.87109375 13.62890625 C83.85346954 13.63033127 82.83584534 13.63175629 81.78738403 13.63322449 C72.16592394 13.64994231 62.54488419 13.69286157 52.92364693 13.76099682 C47.97800843 13.79519037 43.03267633 13.8203649 38.08691406 13.82446289 C33.3079649 13.82876224 28.52970604 13.85736008 23.75097275 13.90233803 C21.93390814 13.91526088 20.1167607 13.91963931 18.29965591 13.91506004 C4.27392012 13.6787194 4.27392012 13.6787194 -8.12890625 19.62890625 C-14.43529427 26.26837426 -16.399571 32.75152166 -16.54296875 41.87109375 C-16.5623349 42.63946564 -16.58170105 43.40783752 -16.60165405 44.19949341 C-16.66104742 46.63418763 -16.70767253 49.06893018 -16.75390625 51.50390625 C-16.79212318 53.16278011 -16.83117704 54.82163492 -16.87109375 56.48046875 C-16.96671532 60.52979167 -17.05089326 64.57920738 -17.12890625 68.62890625 C-22.16744731 69.46101901 -26.94147245 69.73675965 -32.06640625 69.69140625 C-32.75025391 69.68689453 -33.43410156 69.68238281 -34.13867188 69.67773438 C-35.80212229 69.66610185 -37.46552675 69.64817319 -39.12890625 69.62890625 C-39.23081044 62.81547911 -39.30058248 56.00225048 -39.34863281 49.18823242 C-39.36867625 46.87305354 -39.3959185 44.55792483 -39.43066406 42.24291992 C-39.47950167 38.90400774 -39.5019485 35.56576826 -39.51953125 32.2265625 C-39.54017639 31.20119888 -39.56082153 30.17583527 -39.58209229 29.11940002 C-39.58462979 20.88566314 -37.47728787 15.22054873 -33.00390625 8.37890625 C-23.33770268 -0.8670276 -12.57465097 -0.09660667 0 0 Z " fill="#93D8E4" transform="translate(67.12890625,-0.62890625)"/>
<path d="M0 0 C0.85288101 -0.00832352 1.70576202 -0.01664703 2.58448792 -0.02522278 C5.39328634 -0.04924134 8.20185208 -0.05808548 11.01074219 -0.06469727 C12.97361314 -0.07367068 14.93648342 -0.08279265 16.89935303 -0.09205627 C21.01153217 -0.10852734 25.12363008 -0.1162428 29.23583984 -0.11914062 C34.48578934 -0.12451853 39.73496728 -0.16218247 44.98469925 -0.20788479 C49.03925308 -0.23773961 53.09362312 -0.24486603 57.14827728 -0.24586678 C59.08264444 -0.25005332 61.01701293 -0.26242421 62.95127106 -0.28338432 C84.11688919 -0.49446424 84.11688919 -0.49446424 91.99859619 6.8908844 C95.30761719 10.5898544 95.30761719 10.5898544 95.30761719 13.30639648 C94.29363861 13.31448334 93.27966003 13.32257019 92.23495483 13.3309021 C82.67121922 13.40844399 73.10762445 13.49620363 63.5440731 13.59392357 C58.62755521 13.6438331 53.71105825 13.69016366 48.79443359 13.72827148 C44.04811432 13.76519171 39.30197244 13.81157004 34.55580521 13.86445999 C32.74658958 13.88296813 30.93733598 13.89808927 29.1280632 13.90974045 C26.59056245 13.92666424 24.0534648 13.95571385 21.51611328 13.98754883 C20.39832993 13.99078911 20.39832993 13.99078911 19.25796509 13.99409485 C12.07575698 14.10892937 6.99435895 15.95059428 1.30761719 20.30639648 C-4.9787375 26.88513977 -7.12673075 32.81383459 -7.20410156 41.64624023 C-7.22205276 42.41319717 -7.24000397 43.18015411 -7.25849915 43.97035217 C-7.31222762 46.39481274 -7.34637557 48.8190808 -7.37988281 51.24389648 C-7.41308915 52.89821994 -7.44758184 54.55251811 -7.48339844 56.20678711 C-7.56793167 60.23985041 -7.63491961 64.27286036 -7.69238281 68.30639648 C-12.34775637 69.22731929 -16.83923714 69.42845646 -21.56738281 69.36889648 C-22.25574219 69.36438477 -22.94410156 69.35987305 -23.65332031 69.35522461 C-25.33304617 69.34355985 -27.01272656 69.32562919 -28.69238281 69.30639648 C-28.794287 62.49296935 -28.86405904 55.67974072 -28.91210938 48.86572266 C-28.93215281 46.55054378 -28.95939506 44.23541507 -28.99414062 41.92041016 C-29.04297823 38.58149797 -29.06542506 35.2432585 -29.08300781 31.90405273 C-29.10365295 30.87868912 -29.1242981 29.8533255 -29.14556885 28.79689026 C-29.14803615 20.79095802 -27.56333269 14.61903096 -22.25488281 8.49389648 C-21.40925781 7.77202148 -20.56363281 7.05014648 -19.69238281 6.30639648 C-18.48582031 5.22358398 -18.48582031 5.22358398 -17.25488281 4.11889648 C-11.79948701 0.26020189 -6.43917939 0.00538403 0 0 Z " fill="#93D8E4" transform="translate(384.6923828125,-0.306396484375)"/>
<path d="M0 0 C32.67 0 65.34 0 99 0 C99 9.30698965 98.59398892 16.46710366 91.90379333 23.32130432 C84.16809243 30.14236385 75.93078838 30.73390511 65.99609375 30.62890625 C64.67762955 30.63131821 63.35916534 30.63373016 62.00074768 30.63621521 C59.22617264 30.63905472 56.45241311 30.6245549 53.67797852 30.59692383 C50.14529081 30.5628088 46.61405562 30.56888703 43.08129787 30.5875864 C39.67775592 30.60077304 36.27462562 30.58241911 32.87109375 30.56640625 C31.61461533 30.57136612 30.3581369 30.57632599 29.06358337 30.58143616 C20.36610821 30.46552682 12.45395733 29.23639408 6.125 22.75 C-0.34758115 15.66169767 0 9.90861579 0 0 Z " fill="#F3DD46" transform="translate(43,68)"/>
<path d="M0 0 C1.36916565 0.00539291 1.36916565 0.00539291 2.76599121 0.01089478 C3.72198715 0.01074875 4.67798309 0.01060272 5.66294861 0.01045227 C8.83916452 0.01115181 12.01532259 0.01894614 15.19152832 0.02676392 C17.387283 0.02862795 19.58303809 0.03005192 21.77879333 0.03105164 C27.5705784 0.03487798 33.36233857 0.04470926 39.15411377 0.05575562 C45.05915998 0.06596724 50.9642102 0.07054872 56.8692627 0.07559204 C68.46497679 0.08633142 80.06067236 0.10340923 91.65637207 0.12442017 C91.68519044 1.88083365 91.70572705 3.63738429 91.72277832 5.39395142 C91.74126831 6.86118652 91.74126831 6.86118652 91.76013184 8.35806274 C91.51349371 14.93372533 87.95904904 19.34677243 83.96105957 24.22988892 C76.35500291 30.48232532 68.30257545 30.72839535 58.78527832 30.69082642 C56.80901711 30.70012428 56.80901711 30.70012428 54.79283142 30.70960999 C52.01661555 30.71996079 49.24091393 30.71553095 46.46472168 30.70083618 C42.93308217 30.68365875 39.40307148 30.70715538 35.8716135 30.74232578 C32.46774364 30.76975596 29.06425309 30.75955354 25.66027832 30.75332642 C24.40582413 30.76658463 23.15136993 30.77984283 21.85890198 30.79350281 C13.25616918 30.70300972 6.34507317 29.25934744 -0.24742126 23.44548035 C-5.30024914 18.26959055 -7.46566415 11.77759545 -7.59362793 4.62442017 C-7.17994778 -1.16710192 -5.3009242 0.00882243 0 0 Z " fill="#F3DD46" transform="translate(377.3436279296875,67.87557983398438)"/>
<path d="M0 0 C2.74450489 2.0136836 4.68347277 3.62428125 5.46954346 7.04077148 C5.66210403 9.54015074 5.6929844 11.9933205 5.6640625 14.5 C5.66884613 15.41330078 5.67362976 16.32660156 5.67855835 17.26757812 C5.68195317 19.19402799 5.67277994 21.12053579 5.65185547 23.046875 C5.62508281 25.99089348 5.65161622 28.9310997 5.68359375 31.875 C5.68028958 33.75000839 5.67388318 35.62501442 5.6640625 37.5 C5.67418365 38.37720703 5.68430481 39.25441406 5.69473267 40.15820312 C5.61012534 44.5835179 5.42562392 46.44698025 2.64599609 50.05859375 C0 52 0 52 -3 52.5625 C-6.89116531 51.8329065 -8.31928696 50.940388 -11 48 C-11.75772212 44.71460042 -11.70065518 41.48468152 -11.6640625 38.125 C-11.66884613 37.16352051 -11.67362976 36.20204102 -11.67855835 35.21142578 C-11.68195754 33.1806474 -11.67275379 31.14981432 -11.65185547 29.11914062 C-11.62509021 26.01047776 -11.65160265 22.90542555 -11.68359375 19.796875 C-11.68028966 17.8229087 -11.67388343 15.84894464 -11.6640625 13.875 C-11.67418365 12.94574707 -11.68430481 12.01649414 -11.69473267 11.05908203 C-11.57802862 4.63402102 -11.57802862 4.63402102 -8.64599609 1.41796875 C-5.36292215 -0.34140507 -3.67073524 -0.68826286 0 0 Z " fill="#F4DD45" transform="translate(423,125)"/>
<path d="M0 0 C3.89116531 0.7295935 5.31928696 1.622112 8 4.5625 C8.75772212 7.84789958 8.70065518 11.07781848 8.6640625 14.4375 C8.66884613 15.39897949 8.67362976 16.36045898 8.67855835 17.35107422 C8.68195754 19.3818526 8.67275379 21.41268568 8.65185547 23.44335938 C8.62509021 26.55202224 8.65160265 29.65707445 8.68359375 32.765625 C8.68028966 34.7395913 8.67388343 36.71355536 8.6640625 38.6875 C8.67418365 39.61675293 8.68430481 40.54600586 8.69473267 41.50341797 C8.57802862 47.92847898 8.57802862 47.92847898 5.64599609 51.14453125 C2.36292215 52.90390507 0.67073524 53.25076286 -3 52.5625 C-5.74450489 50.5488164 -7.68347277 48.93821875 -8.46954346 45.52172852 C-8.66210403 43.02234926 -8.6929844 40.5691795 -8.6640625 38.0625 C-8.66884613 37.14919922 -8.67362976 36.23589844 -8.67855835 35.29492188 C-8.68195317 33.36847201 -8.67277994 31.44196421 -8.65185547 29.515625 C-8.62508281 26.57160652 -8.65161622 23.6314003 -8.68359375 20.6875 C-8.68028958 18.81249161 -8.67388318 16.93748558 -8.6640625 15.0625 C-8.67418365 14.18529297 -8.68430481 13.30808594 -8.69473267 12.40429688 C-8.61012534 7.9789821 -8.42562392 6.11551975 -5.64599609 2.50390625 C-3 0.5625 -3 0.5625 0 0 Z " fill="#F4DD44" transform="translate(92,124.4375)"/>
<path d="M0 0 C6.08852804 1.92746698 9.14610622 8.6965429 12.09765625 13.9140625 C12.53118408 14.67187012 12.96471191 15.42967773 13.41137695 16.21044922 C14.26209528 17.69900652 15.11026083 19.18902637 15.95556641 20.68066406 C16.89860163 22.31837636 17.88863036 23.92893177 18.890625 25.53125 C21.18855637 29.25171031 22.09765625 31.06201161 22.09765625 35.5390625 C20.57183465 40.30725499 20.57183465 40.30725499 18.09765625 41.6640625 C12.63129894 42.36939893 12.63129894 42.36939893 10.09765625 41.6640625 C4.54425802 36.6195797 1.11036601 30.60679274 -2.71484375 24.2265625 C-3.40771484 23.10701172 -4.10058594 21.98746094 -4.81445312 20.83398438 C-5.46865234 19.74794922 -6.12285156 18.66191406 -6.796875 17.54296875 C-7.39346924 16.5588501 -7.99006348 15.57473145 -8.60473633 14.56079102 C-10.06548169 11.29987968 -10.26414169 9.19888057 -9.90234375 5.6640625 C-7.45989882 0.98270971 -5.25096723 0.10439299 0 0 Z " fill="#F4DD44" transform="translate(448.90234375,114.3359375)"/>
<path d="M0 0 C2.96718826 2.52211002 3.90649935 3.97429704 4.26049805 7.85766602 C3.96990216 11.36306405 3.14450748 13.16325294 1.33203125 16.15234375 C0.76806641 17.09400391 0.20410156 18.03566406 -0.37695312 19.00585938 C-0.97443359 19.97330078 -1.57191406 20.94074219 -2.1875 21.9375 C-2.76564453 22.90107422 -3.34378906 23.86464844 -3.93945312 24.85742188 C-12.70906572 39.35453286 -12.70906572 39.35453286 -16 41 C-23.11748879 41.68878924 -23.11748879 41.68878924 -26.5625 39 C-28.45783387 35.04452062 -28.1694438 32.10869446 -27 28 C-25.16549988 24.27836917 -22.95691031 20.84441337 -20.6875 17.375 C-20.10548828 16.45976562 -19.52347656 15.54453125 -18.92382812 14.6015625 C-17.29977432 12.05604668 -15.65295499 9.52680344 -14 7 C-13.59088379 6.35708008 -13.18176758 5.71416016 -12.76025391 5.05175781 C-9.42930527 -0.12765885 -6.12451875 -1.06513369 0 0 Z " fill="#F4DD45" transform="translate(69,115)"/>
<path d="M0 0 C3.875 0.75 3.875 0.75 6.3125 2.4375 C8.06885151 5.03690023 8.55358974 6.64217475 8.875 9.75 C8.09423828 12.07641602 8.09423828 12.07641602 6.8203125 14.44140625 C6.35399414 15.31039551 5.88767578 16.17938477 5.40722656 17.07470703 C2.95919381 21.34901278 0.40225427 25.53715199 -2.25 29.6875 C-2.77464844 30.52345703 -3.29929687 31.35941406 -3.83984375 32.22070312 C-8.5858617 39.70018711 -8.5858617 39.70018711 -11.125 41.75 C-17.875 42.5 -17.875 42.5 -21.625 40.25 C-23.7398538 36.72524366 -23.85270711 33.70228736 -23.125 29.75 C-21.43363861 26.0158255 -19.25476539 22.66645973 -17 19.25 C-16.14535156 17.90228516 -16.14535156 17.90228516 -15.2734375 16.52734375 C-13.59524915 13.90708149 -11.87446422 11.32312626 -10.125 8.75 C-9.5892334 7.95432617 -9.0534668 7.15865234 -8.50146484 6.33886719 C-7.73503662 5.2507373 -7.73503662 5.2507373 -6.953125 4.140625 C-6.50614258 3.50157227 -6.05916016 2.86251953 -5.59863281 2.20410156 C-3.72573821 0.35602995 -2.60462338 0.14224423 0 0 Z " fill="#F4DD45" transform="translate(392.125,114.25)"/>
<path d="M0 0 C1.48583984 1.43579102 1.48583984 1.43579102 2.8359375 3.37890625 C3.34576172 4.10601807 3.85558594 4.83312988 4.38085938 5.58227539 C4.91517578 6.38012451 5.44949219 7.17797363 6 8 C6.84014648 9.23641235 6.84014648 9.23641235 7.69726562 10.49780273 C9.46191854 13.14204659 11.17254359 15.8153572 12.875 18.5 C13.46796875 19.39847656 14.0609375 20.29695313 14.671875 21.22265625 C18.18693176 26.78681291 19.89933519 30.39504649 19 37 C17.5 39.5 17.5 39.5 15 41 C10.08456407 41.87209347 10.08456407 41.87209347 7 41 C1.35443826 36.38175306 -2.19798756 29.06541925 -5.8125 22.875 C-6.39708984 21.89917969 -6.98167969 20.92335937 -7.58398438 19.91796875 C-8.41833008 18.50064453 -8.41833008 18.50064453 -9.26953125 17.0546875 C-10.02133667 15.77827393 -10.02133667 15.77827393 -10.78833008 14.47607422 C-12.04388099 11.91032822 -12.70594117 9.83840796 -13 7 C-10.41512171 0.599349 -7.06580419 -1.80273942 0 0 Z " fill="#F4DD44" transform="translate(124,115)"/>
<path d="M0 0 C0.66 0.33 1.32 0.66 2 1 C-1.3 4.3 -4.6 7.6 -8 11 C-8 7.0234755 -6.61988497 5.9109833 -4 3 C-1.75 1.1875 -1.75 1.1875 0 0 Z " fill="#A1DCEA" transform="translate(229,366)"/>
</svg>
